<?xml version="1.0" encoding="utf-8"?><svg xmlns="http://www.w3.org/2000/svg" xmlns:xlink="http://www.w3.org/1999/xlink" width="1920" height="1007" preserveAspectRatio="xMidYMid" viewBox="0 0 1920 1007" style="z-index:1;margin-right:-2px;display:block;background-repeat-y:initial;background-repeat-x:initial;background-color:rgb(241, 242, 243);animation-play-state:paused" ><g transform="translate(960,503.5) scale(1,1) translate(-960,-503.5)" style="transform:matrix(1, 0, 0, 1, 0, 0);animation-play-state:paused" ><linearGradient id="lg-0.9785587428457518" x1="0" x2="1" y1="0" y2="0" style="animation-play-state:paused" ><stop stop-color="#04284d" offset="0" style="animation-play-state:paused" ></stop>

  
<stop stop-color="#06628d" offset="1" style="animation-play-state:paused" ></stop></linearGradient>
<path d="M 0 0 L 0 1006.36 Q 192 759.128 384 742.04 T 768 793.567 T 1152 581.219 T 1536 603.67 T 1920 482.549 L 1920 0 Z" fill="url(#lg-0.9785587428457518)" opacity="0.4" style="opacity:0.4;animation-play-state:paused" ></path>
<path d="M 0 0 L 0 966.917 Q 192 837.811 384 795.475 T 768 696.793 T 1152 611.228 T 1536 519.83 T 1920 441.681 L 1920 0 Z" fill="url(#lg-0.9785587428457518)" opacity="0.4" style="opacity:0.4;animation-play-state:paused" ></path>
<path d="M 0 0 L 0 879.902 Q 192 857.206 384 833.911 T 768 751.636 T 1152 592.154 T 1536 549.957 T 1920 416.291 L 1920 0 Z" fill="url(#lg-0.9785587428457518)" opacity="0.4" style="opacity:0.4;animation-play-state:paused" ></path>
<path d="M 0 0 L 0 967.746 Q 192 904.01 384 884.347 T 768 772.084 T 1152 635.44 T 1536 447.511 T 1920 360.908 L 1920 0 Z" fill="url(#lg-0.9785587428457518)" opacity="0.4" style="opacity:0.4;animation-play-state:paused" ></path>
<path d="M 0 0 L 0 918.234 Q 192 831.3 384 799.103 T 768 694.63 T 1152 637.897 T 1536 508.953 T 1920 366.354 L 1920 0 Z" fill="url(#lg-0.9785587428457518)" opacity="0.4" style="opacity:0.4;animation-play-state:paused" ></path></g></svg>